<svg width="220" height="86" viewBox="0 0 220 86" fill="none" xmlns="http://www.w3.org/2000/svg">
<path d="M0.427937 7.39967L8.79791 60.3275C9.06274 62.0021 10.5063 63.2353 12.2017 63.2353C32.4322 63.2353 52.1332 69.0626 70.9013 76.6145C83.2111 81.5676 97.6181 86 109.758 86C121.897 86 136.304 81.5676 148.614 76.6145C167.382 69.0626 187.083 63.2353 207.314 63.2353C209.009 63.2353 210.453 62.0021 210.718 60.3275L219.088 7.39967C219.491 4.85148 219.692 3.57738 219.317 2.58547C218.988 1.71493 218.366 0.98639 217.557 0.525332C216.636 0 215.346 0 212.766 0H6.74938C4.16952 0 2.8796 0 1.95844 0.525332C1.14998 0.98639 0.527602 1.71493 0.198483 2.58547C-0.176517 3.57738 0.0249675 4.85148 0.427937 7.39967Z" fill="#7B3920"/>
</svg>
