<svg width="29" height="28" viewBox="0 0 29 28" fill="none" xmlns="http://www.w3.org/2000/svg">
<rect width="29" height="28" fill="#FFC8F9"/>
<path d="M18.8888 7.18696C18.724 6.38266 18.6417 5.98051 18.4934 5.6471C18.0595 4.67132 17.1876 3.95991 16.1445 3.73067C15.7882 3.65234 15.3777 3.65234 14.5567 3.65234H14.1749C12.9945 3.65234 12.4044 3.65234 11.9031 3.81339C11.1011 4.07107 10.4251 4.62064 10.0091 5.3532C9.74914 5.81103 9.62867 6.38876 9.38773 7.54422L7.20432 18.0151C6.74206 20.232 6.51093 21.3404 6.80579 22.2088C7.06439 22.9704 7.58759 23.6139 8.28034 24.0225C9.07026 24.4885 10.2025 24.4885 12.4671 24.4885H15.9205C18.1779 24.4885 19.3066 24.4885 20.0953 24.0243C20.7871 23.6173 21.3103 22.976 21.5703 22.2166C21.8666 21.3507 21.6401 20.245 21.1871 18.0336L19.9871 12.1762" stroke="black" stroke-width="1.67998" stroke-linecap="round"/>
<line x1="15.3552" y1="17.8517" x2="24.6724" y2="6.49723" stroke="black" stroke-width="1.67998" stroke-linecap="round"/>
<line x1="13.3625" y1="12.2303" x2="15.1141" y2="12.2303" stroke="black" stroke-width="1.67998" stroke-linecap="round"/>
<line x1="12.6916" y1="9.10532" x2="15.785" y2="9.10532" stroke="black" stroke-width="1.67998" stroke-linecap="round"/>
</svg>
